<svg width="18" height="16" viewBox="0 0 18 16" fill="none" xmlns="http://www.w3.org/2000/svg">
<path d="M16.1666 6.24999H5.90806L8.75356 3.40449C9.08185 3.07635 9.26634 2.63124 9.26645 2.16707C9.26656 1.7029 9.08228 1.2577 8.75414 0.929409C8.426 0.601116 7.98089 0.416621 7.51672 0.416512C7.05255 0.416402 6.60735 0.600687 6.27906 0.928826L2.09539 5.11249C1.33095 5.87903 0.901672 6.91743 0.901672 7.99999C0.901672 9.08256 1.33095 10.121 2.09539 10.8875L6.27906 15.0712C6.60735 15.3993 7.05255 15.5836 7.51672 15.5835C7.98089 15.5834 8.426 15.3989 8.75414 15.0706C9.08228 14.7423 9.26656 14.2971 9.26645 13.8329C9.26634 13.3687 9.08185 12.9236 8.75356 12.5955L5.90806 9.74999H16.1666C16.6307 9.74999 17.0758 9.56562 17.404 9.23743C17.7322 8.90924 17.9166 8.46412 17.9166 7.99999C17.9166 7.53586 17.7322 7.09074 17.404 6.76256C17.0758 6.43437 16.6307 6.24999 16.1666 6.24999Z" fill="#3C2F2F"/>
</svg>
