<svg width="28" height="28" viewBox="0 0 28 28" fill="none" xmlns="http://www.w3.org/2000/svg">
<path fill-rule="evenodd" clip-rule="evenodd" d="M15.296 0.292786C15.4835 0.105315 15.7378 0 16.003 0C16.2682 0 16.5225 0.105315 16.71 0.292786L23.414 6.99679H26C26.5304 6.99679 27.0391 7.2075 27.4142 7.58257C27.7893 7.95765 28 8.46635 28 8.99679V11.9968C28 12.5272 27.7893 13.0359 27.4142 13.411C27.0391 13.7861 26.5304 13.9968 26 13.9968H25L23.245 26.2798C23.1769 26.7564 22.9391 27.1924 22.5754 27.5078C22.2117 27.8232 21.7464 27.9968 21.265 27.9968H6.735C6.25358 27.9968 5.7883 27.8232 5.42458 27.5078C5.06086 27.1924 4.82312 26.7564 4.755 26.2798L3 13.9968H2C1.46957 13.9968 0.960859 13.7861 0.585786 13.411C0.210714 13.0359 0 12.5272 0 11.9968V8.99679C0 8.46635 0.210714 7.95765 0.585786 7.58257C0.960859 7.2075 1.46957 6.99679 2 6.99679H4.66C4.675 6.97979 4.69 6.96279 4.707 6.94679L11.36 0.293786C11.5486 0.111628 11.8012 0.0108339 12.0634 0.0131123C12.3256 0.0153907 12.5764 0.12056 12.7618 0.305968C12.9472 0.491376 13.0524 0.742188 13.0547 1.00439C13.057 1.26658 12.9562 1.51918 12.774 1.70779L7.485 6.99779H20.585L15.295 1.70679C15.1075 1.51926 15.0022 1.26495 15.0022 0.999786C15.0022 0.734622 15.1085 0.480314 15.296 0.292786ZM16 16.9968C16 16.7316 16.1054 16.4772 16.2929 16.2897C16.4804 16.1021 16.7348 15.9968 17 15.9968C17.2652 15.9968 17.5196 16.1021 17.7071 16.2897C17.8946 16.4772 18 16.7316 18 16.9968V22.9968C18 23.262 17.8946 23.5164 17.7071 23.7039C17.5196 23.8914 17.2652 23.9968 17 23.9968C16.7348 23.9968 16.4804 23.8914 16.2929 23.7039C16.1054 23.5164 16 23.262 16 22.9968V16.9968ZM11 15.9968C10.7348 15.9968 10.4804 16.1021 10.2929 16.2897C10.1054 16.4772 10 16.7316 10 16.9968V22.9968C10 23.262 10.1054 23.5164 10.2929 23.7039C10.4804 23.8914 10.7348 23.9968 11 23.9968C11.2652 23.9968 11.5196 23.8914 11.7071 23.7039C11.8946 23.5164 12 23.262 12 22.9968V16.9968C12 16.7316 11.8946 16.4772 11.7071 16.2897C11.5196 16.1021 11.2652 15.9968 11 15.9968Z" fill="white"/>
</svg>
