<svg width="25" height="22" viewBox="0 0 25 22" fill="none" xmlns="http://www.w3.org/2000/svg">
<path d="M17.741 0.771912C16.7153 0.781834 15.7062 1.03185 14.7945 1.50193C13.8828 1.97201 13.0939 2.64909 12.491 3.47891C11.8881 2.64909 11.0991 1.97201 10.1875 1.50193C9.27578 1.03185 8.26668 0.781834 7.24099 0.771912C5.38276 0.846118 3.62951 1.65309 2.3646 3.01638C1.0997 4.37966 0.426062 6.18833 0.490988 8.04691C0.490988 12.5989 5.16499 17.4719 9.09099 20.7589C10.0443 21.5605 11.2499 22 12.4955 22C13.741 22 14.9467 21.5605 15.9 20.7589C19.822 17.4719 24.5 12.5989 24.5 8.04691C24.5649 6.18684 23.89 4.37684 22.6232 3.0133C21.3564 1.64976 19.6008 0.8438 17.741 0.771912Z" fill="#3C2F2F"/>
</svg>
