<svg width="16" height="24" viewBox="0 0 16 24" fill="none" xmlns="http://www.w3.org/2000/svg">
<path d="M7.45236 14.0188C3.19063 14.404 -0.0562161 18.0051 0.000361998 22.2838V22.5008C0.000361998 23.3292 0.67194 24.0008 1.50036 24.0008C2.32878 24.0008 3.00036 23.3292 3.00036 22.5008V22.2238C2.95527 19.5967 4.89402 17.3564 7.50036 17.0238C10.2516 16.751 12.7031 18.7601 12.9759 21.5114C12.9921 21.674 13.0002 21.8373 13.0003 22.0008V22.5008C13.0003 23.3292 13.6719 24.0008 14.5003 24.0008C15.3288 24.0008 16.0003 23.3292 16.0003 22.5008V22.0008C15.9955 17.5775 12.4057 13.9957 7.98252 14.0006C7.80566 14.0008 7.62885 14.0069 7.45236 14.0188Z" fill="white"/>
<path d="M8.00043 12C11.3141 12 14.0004 9.31369 14.0004 6C14.0004 2.68631 11.3141 0 8.00043 0C4.68674 0 2.00043 2.68631 2.00043 6C2.00371 9.31233 4.6881 11.9967 8.00043 12ZM8.00043 3C9.65727 3 11.0004 4.34316 11.0004 6C11.0004 7.65684 9.65727 9 8.00043 9C6.34358 9 5.00043 7.65684 5.00043 6C5.00043 4.34316 6.34358 3 8.00043 3Z" fill="white"/>
</svg>
