<svg width="16" height="17" viewBox="0 0 16 17" fill="none" xmlns="http://www.w3.org/2000/svg">
<path d="M6.34073 13.1955C6.56076 13.1955 6.77178 13.1094 6.92737 12.956C7.08296 12.8026 7.17036 12.5946 7.17036 12.3778V7.47108C7.17036 7.2542 7.08296 7.04619 6.92737 6.89283C6.77178 6.73947 6.56076 6.65331 6.34073 6.65331C6.1207 6.65331 5.90968 6.73947 5.7541 6.89283C5.59851 7.04619 5.5111 7.2542 5.5111 7.47108V12.3778C5.5111 12.5946 5.59851 12.8026 5.7541 12.956C5.90968 13.1094 6.1207 13.1955 6.34073 13.1955ZM14.637 3.3822H11.3185V2.56442C11.3185 1.91375 11.0563 1.28974 10.5895 0.829649C10.1228 0.36956 9.48972 0.111084 8.82962 0.111084H7.17036C6.51027 0.111084 5.87721 0.36956 5.41045 0.829649C4.94369 1.28974 4.68147 1.91375 4.68147 2.56442V3.3822H1.36295C1.14292 3.3822 0.931904 3.46835 0.776318 3.62172C0.620732 3.77508 0.533325 3.98308 0.533325 4.19997C0.533325 4.41686 0.620732 4.62487 0.776318 4.77823C0.931904 4.93159 1.14292 5.01775 1.36295 5.01775H2.19258V14.0133C2.19258 14.664 2.45481 15.288 2.92156 15.7481C3.38832 16.2082 4.02138 16.4666 4.68147 16.4666H11.3185C11.9786 16.4666 12.6117 16.2082 13.0784 15.7481C13.5452 15.288 13.8074 14.664 13.8074 14.0133V5.01775H14.637C14.8571 5.01775 15.0681 4.93159 15.2237 4.77823C15.3793 4.62487 15.4667 4.41686 15.4667 4.19997C15.4667 3.98308 15.3793 3.77508 15.2237 3.62172C15.0681 3.46835 14.8571 3.3822 14.637 3.3822ZM6.34073 2.56442C6.34073 2.34753 6.42814 2.13952 6.58373 1.98616C6.73931 1.8328 6.95033 1.74664 7.17036 1.74664H8.82962C9.04965 1.74664 9.26067 1.8328 9.41626 1.98616C9.57184 2.13952 9.65925 2.34753 9.65925 2.56442V3.3822H6.34073V2.56442ZM12.1481 14.0133C12.1481 14.2302 12.0607 14.4382 11.9051 14.5916C11.7496 14.7449 11.5385 14.8311 11.3185 14.8311H4.68147C4.46144 14.8311 4.25042 14.7449 4.09484 14.5916C3.93925 14.4382 3.85184 14.2302 3.85184 14.0133V5.01775H12.1481V14.0133ZM9.65925 13.1955C9.87928 13.1955 10.0903 13.1094 10.2459 12.956C10.4015 12.8026 10.4889 12.5946 10.4889 12.3778V7.47108C10.4889 7.2542 10.4015 7.04619 10.2459 6.89283C10.0903 6.73947 9.87928 6.65331 9.65925 6.65331C9.43922 6.65331 9.2282 6.73947 9.07261 6.89283C8.91703 7.04619 8.82962 7.2542 8.82962 7.47108V12.3778C8.82962 12.5946 8.91703 12.8026 9.07261 12.956C9.2282 13.1094 9.43922 13.1955 9.65925 13.1955Z" fill="white"/>
</svg>
